# xmcd
#
# Track frame offsets: 
#        150
#        36008
#        70427
#        97148
#        160945
#
# Disc length: 2668 seconds
#
# Revision: 0
# Processed by: cddbd v1.5.2PL0 Copyright (c) Steve Scherf et al.
# Submitted via: ExactAudioCopy v1.0b4
#
DISCID=400a6a05
DTITLE=Champion Jack Dupree - Alive. 'Live' And Well (LP)
DYEAR=1972
DGENRE=Blues
TTITLE0=Wine, Wine, Wine
TTITLE1=You Can Make It, You Can Make It
TTITLE2=Reminiscing Fats W
TTITLE3=Reminiscing Fats W
TTITLE4=I Ain' t Good Lockin'
EXTD=
EXTT0=
EXTT1=
EXTT2=
EXTT3=
EXTT4=
PLAYORDER=
